<?xml version="1.0" encoding="UTF-8"?>
<!DOCTYPE svg PUBLIC "-//W3C//DTD SVG 1.1//EN" "http://www.w3.org/Graphics/SVG/1.1/DTD/svg11.dtd">
<!-- Creator: CorelDRAW X7 -->
<svg xmlns="http://www.w3.org/2000/svg" xml:space="preserve" width="5.5561mm" height="5.8316mm" version="1.1" style="shape-rendering:geometricPrecision; text-rendering:geometricPrecision; image-rendering:optimizeQuality; fill-rule:evenodd; clip-rule:evenodd"
viewBox="0 0 15 16"
 xmlns:xlink="http://www.w3.org/1999/xlink"
 enable-background="new 0 0 21 22">
 <defs>
  <style type="text/css">
   <![CDATA[
    .fil0 {fill:black}
   ]]>
  </style>
 </defs>
 <g id="Слой_x0020_1">
  <metadata id="CorelCorpID_0Corel-Layer"/>
  <g id="_2165429731424">
   <g id="calendar_1_">
    <path class="fil0" d="M14 1l-2 0 0 -1c0,0 0,0 -1,0 0,0 0,0 0,0l0 1 -3 0 0 -1c0,0 0,0 0,0 -1,0 -1,0 -1,0l0 1 -3 0 0 -1c0,0 0,0 0,0 0,0 -1,0 -1,0l0 1 -2 0c0,0 -1,1 -1,2l0 12c0,0 1,1 1,1l13 0c1,0 1,-1 1,-1l0 -12c0,-1 0,-2 -1,-2zm0 14c0,0 0,0 0,0l-13 0c0,0 0,0 0,0l0 -12c0,0 0,-1 0,-1l2 0 0 1c0,1 1,1 1,1 0,0 0,0 0,-1l0 -1 3 0 0 1c0,1 0,1 1,1 0,0 0,0 0,-1l0 -1 3 0 0 1c0,1 0,1 0,1 1,0 1,0 1,-1l0 -1 2 0c0,0 0,1 0,1l0 12 0 0z"/>
    <rect class="fil0" x="3" y="6" width="1.88983" height="1.48737"/>
    <rect class="fil0" x="3" y="8" width="1.88983" height="1.48819"/>
    <rect class="fil0" x="3" y="11" width="1.88983" height="1.48737"/>
    <rect class="fil0" x="7" y="11" width="1.88983" height="1.48737"/>
    <rect class="fil0" x="7" y="8" width="1.88983" height="1.48819"/>
    <rect class="fil0" x="7" y="6" width="1.88983" height="1.48737"/>
    <rect class="fil0" x="10" y="11" width="1.88983" height="1.48737"/>
    <rect class="fil0" x="10" y="8" width="1.88983" height="1.48819"/>
    <rect class="fil0" x="10" y="6" width="1.88983" height="1.48737"/>
   </g>
  </g>
 </g>
</svg>
