<?xml version="1.0" encoding="UTF-8"?>
<!DOCTYPE svg PUBLIC "-//W3C//DTD SVG 1.1//EN" "http://www.w3.org/Graphics/SVG/1.1/DTD/svg11.dtd">
<!-- Creator: CorelDRAW X7 -->
<svg xmlns="http://www.w3.org/2000/svg" xml:space="preserve" width="6.0854mm" height="6.0853mm" version="1.1" style="shape-rendering:geometricPrecision; text-rendering:geometricPrecision; image-rendering:optimizeQuality; fill-rule:evenodd; clip-rule:evenodd"
viewBox="0 0 47 47"
 xmlns:xlink="http://www.w3.org/1999/xlink"
 enable-background="new 0 0 23 23">
 <defs>
  <style type="text/css">
   <![CDATA[
    .fil0 {fill:#6A6A6A}
   ]]>
  </style>
 </defs>
 <g id="Слой_x0020_1">
  <metadata id="CorelCorpID_0Corel-Layer"/>
  <g id="_2363651186800">
   <g>
    <path class="fil0" d="M41 4c1,0 2,1 2,2l0 35c0,1 -1,2 -2,2l-35 0c-1,0 -2,-1 -2,-2l0 -35c0,-1 1,-2 2,-2l35 0 0 0zm0 -4l-35 0c-3,0 -6,3 -6,6l0 35c0,3 3,6 6,6l35 0c3,0 6,-3 6,-6l0 -35c0,-3 -3,-6 -6,-6l0 0z"/>
   </g>
  </g>
 </g>
</svg>
