<?xml version="1.0" encoding="UTF-8"?>
<!DOCTYPE svg PUBLIC "-//W3C//DTD SVG 1.1//EN" "http://www.w3.org/Graphics/SVG/1.1/DTD/svg11.dtd">
<!-- Creator: CorelDRAW X7 -->
<svg xmlns="http://www.w3.org/2000/svg" xml:space="preserve" width="6.9244mm" height="6.0854mm" version="1.1" style="shape-rendering:geometricPrecision; text-rendering:geometricPrecision; image-rendering:optimizeQuality; fill-rule:evenodd; clip-rule:evenodd"
viewBox="0 0 66 58"
 xmlns:xlink="http://www.w3.org/1999/xlink"
 enable-background="new 0 0 27 23">
 <defs>
  <style type="text/css">
   <![CDATA[
    .fil0 {fill:#6A6A6A}
   ]]>
  </style>
 </defs>
 <g id="Слой_x0020_1">
  <metadata id="CorelCorpID_0Corel-Layer"/>
  <g id="_2363652514880">
   <g id="Layer_1">
   </g>
   <g id="Layer_2">
    <g>
     <polygon class="fil0" points="18,19 11,26 31,46 66,11 59,3 31,32 "/>
     <path class="fil0" d="M53 51c0,1 -1,2 -2,2l-43 0c-2,0 -3,-1 -3,-2l0 -43c0,-2 1,-3 3,-3l42 0 4 -4c-1,-1 -2,-1 -3,-1l-43 0c-5,0 -8,3 -8,8l0 43c0,4 3,7 8,7l43 0c4,0 7,-3 7,-7l0 -25 -5 5 0 20z"/>
    </g>
   </g>
  </g>
 </g>
</svg>
